<svg width="72" height="72" viewBox="0 0 72 72" fill="none" xmlns="http://www.w3.org/2000/svg">
<path d="M66 20.4H24C23.3376 20.4 22.8 19.8624 22.8 19.2C22.8 18.5376 23.3376 18 24 18H60.7032C61.6404 18 62.4 17.2404 62.4 16.3032C62.4 15.8532 62.2212 15.4212 61.9032 15.1032C57.6108 10.8108 51.7896 8.40005 45.7212 8.40005H42V6.00005C42 5.33765 41.4624 4.80005 40.8 4.80005H31.2C30.5376 4.80005 30 5.33765 30 6.00005V8.40005H26.2788C20.2092 8.40005 14.388 10.8108 10.0968 15.1032C9.7788 15.4212 9.6 15.8532 9.6 16.3032C9.6 17.2404 10.3596 18 11.2968 18H18C18.6624 18 19.2 18.5376 19.2 19.2C19.2 19.8624 18.6624 20.4 18 20.4H6C5.3376 20.4 4.8 20.9376 4.8 21.6V26.4C4.8 27.0624 5.3376 27.6 6 27.6H66C66.6624 27.6 67.2 27.0624 67.2 26.4V21.6C67.2 20.9376 66.6624 20.4 66 20.4Z" fill="#F55539"/>
<path d="M12 30L18.4668 64.488C18.8916 66.756 20.8728 68.4 23.1804 68.4H48.8196C51.1272 68.4 53.1084 66.756 53.5332 64.488L60 30H12ZM30.6 50.4C30.5028 50.4 30.4044 50.376 30.3144 50.3268C30.3144 50.3268 29.268 49.7472 27.9204 49.002L25.5816 52.7232C25.3308 53.1168 25.2 53.5572 25.2 54C25.2 55.3236 26.2764 56.4 27.6 56.4H30.6156C30.2232 56.9184 30 57.54 30 58.2C30 58.86 30.2232 59.4816 30.6156 60H27.6C24.2916 60 21.6 57.3084 21.6 54C21.6 52.8732 21.9252 51.7644 22.5408 50.7948L24.8256 47.2896C23.2296 46.4064 21.9024 45.672 21.9024 45.672C21.7092 45.5604 21.6 45.3576 21.6 45.1488C21.6012 44.9016 21.7524 44.676 22.0092 44.5896L29.2128 42.0336C29.364 41.9832 29.5344 41.9916 29.6856 42.0732C29.8524 42.1632 29.9508 42.3228 29.982 42.4956L31.182 49.7088C31.188 49.746 31.2 49.7844 31.2 49.824C31.2 50.1576 30.9096 50.4 30.6 50.4ZM32.3448 42.0804C32.1852 41.1696 31.632 40.398 30.8304 39.9624C30.4644 39.7632 30.0564 39.6648 29.6424 39.6312L30.9468 37.5816C32.0604 35.8392 33.948 34.8 36 34.8C38.052 34.8 39.9396 35.8392 41.052 37.5804L43.6212 41.5788L45.8244 39.7428C45.9276 39.6576 46.0548 39.6 46.2 39.6C46.5312 39.6 46.8 39.8688 46.8 40.2V47.4C46.8 47.7312 46.5312 48 46.2 48C46.1688 48 46.1304 47.9964 46.1004 47.9916L38.898 46.7796C38.6172 46.7292 38.4 46.4952 38.4 46.2C38.4 46.0152 38.4876 45.8568 38.6184 45.7476L40.8192 43.914L38.0184 39.5184C37.5648 38.808 36.828 38.4 36 38.4C35.172 38.4 34.4352 38.808 33.984 39.5148L32.346 42.09L32.3448 42.0804ZM44.4 60H39.6V63C39.6 63.3312 39.3312 63.6 39 63.6C38.8596 63.6 38.7372 63.5448 38.6352 63.4644L32.6256 58.6584C32.4912 58.548 32.4 58.3872 32.4 58.2C32.4 58.0128 32.4912 57.852 32.6256 57.7428L38.6352 52.9368C38.7372 52.8552 38.8596 52.8 39 52.8C39.3312 52.8 39.6 53.0688 39.6 53.4V56.4H44.4C45.7236 56.4 46.8 55.3236 46.8 54C46.8 53.5572 46.668 53.1156 46.422 52.7256L44.8212 50.2092C45.2208 50.2776 45.8376 50.4 46.2 50.4C47.1324 50.4 47.9556 49.9644 48.5064 49.296L49.4592 50.7936C50.0748 51.7644 50.4 52.8732 50.4 54C50.4 57.3084 47.7084 60 44.4 60Z" fill="#F55539"/>
</svg>
