<svg width="72" height="72" viewBox="0 0 72 72" fill="none" xmlns="http://www.w3.org/2000/svg">
<path d="M63 32.9999C62.2044 32.9999 61.4413 33.316 60.8787 33.8786C60.3161 34.4412 60 35.2043 60 35.9999V43.7699L41.13 24.8699C40.8511 24.5888 40.5193 24.3656 40.1537 24.2133C39.7882 24.061 39.396 23.9826 39 23.9826C38.604 23.9826 38.2119 24.061 37.8463 24.2133C37.4807 24.3656 37.1489 24.5888 36.87 24.8699L27 34.7699L11.13 18.8699C10.5651 18.305 9.79891 17.9877 9.00001 17.9877C8.2011 17.9877 7.43492 18.305 6.87001 18.8699C6.3051 19.4349 5.98773 20.201 5.98773 20.9999C5.98773 21.7989 6.3051 22.565 6.87001 23.1299L24.87 41.1299C25.1489 41.4111 25.4807 41.6343 25.8463 41.7866C26.2119 41.9389 26.604 42.0173 27 42.0173C27.396 42.0173 27.7882 41.9389 28.1537 41.7866C28.5193 41.6343 28.8511 41.4111 29.13 41.1299L39 31.2299L55.77 47.9999H48C47.2044 47.9999 46.4413 48.316 45.8787 48.8786C45.3161 49.4412 45 50.2043 45 50.9999C45 51.7956 45.3161 52.5587 45.8787 53.1213C46.4413 53.6839 47.2044 53.9999 48 53.9999H63C63.392 53.9952 63.7793 53.9137 64.14 53.7599C64.8731 53.4555 65.4556 52.873 65.76 52.1399C65.9137 51.7793 65.9953 51.392 66 50.9999V35.9999C66 35.2043 65.6839 34.4412 65.1213 33.8786C64.5587 33.316 63.7957 32.9999 63 32.9999Z" fill="#F55539"/>
</svg>
