<svg width="72" height="72" viewBox="0 0 72 72" fill="none" xmlns="http://www.w3.org/2000/svg">
<path d="M13.6992 34.3452C13.6776 34.3536 13.6584 34.356 13.638 34.3644L18.6432 65.5872C19.0284 67.902 21.0324 69.6 23.3808 69.6H48.618C50.9664 69.6 52.9704 67.902 53.3556 65.586L59.8908 25.2H35.7816L13.6992 34.3452ZM26.4 63.6C25.2264 63.6 24.2532 62.7564 24.0444 61.644L20.4444 38.844C20.418 38.7 20.4 38.5524 20.4 38.4C20.4 37.0752 21.4752 36 22.8 36C23.9736 36 24.9468 36.8424 25.1556 37.956L28.7556 60.756C28.782 60.9 28.8 61.0476 28.8 61.2C28.8 62.5248 27.7248 63.6 26.4 63.6ZM43.2444 60.756L46.8444 37.956C47.0532 36.8424 48.0264 36 49.2 36C50.5248 36 51.6 37.0752 51.6 38.4C51.6 38.5524 51.582 38.7 51.5556 38.844L47.9556 61.644C47.7468 62.7564 46.7736 63.6 45.6 63.6C44.2752 63.6 43.2 62.5248 43.2 61.2C43.2 61.0476 43.218 60.9 43.2444 60.756ZM38.4 38.4V61.2C38.4 62.5248 37.3248 63.6 36 63.6C34.6752 63.6 33.6 62.5248 33.6 61.2V38.4C33.6 37.0752 34.6752 36 36 36C37.3248 36 38.4 37.0752 38.4 38.4Z" fill="#F55539"/>
<path d="M56.3112 10.2084L54.7896 6.88078C53.9508 4.85998 52.0272 3.59998 49.9476 3.59998C49.266 3.59998 48.57 3.71398 47.8968 3.98278L37.236 8.40118L35.4 4.30678C35.2008 3.86398 34.7676 3.59998 34.3104 3.59998C34.158 3.59998 34.0032 3.62878 33.852 3.69118L21.138 8.96038C20.6772 9.15118 20.4 9.59518 20.4 10.062C20.4 10.224 20.4324 10.3896 20.5032 10.5492L22.2972 14.5932L11.7384 18.9684C9.65279 19.806 8.39999 21.7716 8.39999 23.9316C8.39999 24.5916 8.53079 25.2624 8.79599 25.9116L10.2948 29.25C10.4856 29.718 10.9368 30 11.4132 29.9988C11.5632 29.9988 11.7168 29.97 11.8644 29.9088L55.6524 11.7756C56.1192 11.586 56.4 11.136 56.4 10.662C56.4 10.5108 56.3724 10.3572 56.3112 10.2084Z" fill="#F55539"/>
</svg>
