<svg width="72" height="72" viewBox="0 0 72 72" fill="none" xmlns="http://www.w3.org/2000/svg">
<path d="M19.0044 10.5996L16.6044 5.79965C16.3092 5.20925 15.7044 4.80005 15 4.80005C14.0052 4.80005 13.2 5.60645 13.2 6.60005C13.2 6.88925 13.2744 7.15805 13.3956 7.40045L15.7956 12.2004C16.0908 12.7908 16.6956 13.2 17.4 13.2C18.3948 13.2 19.2 12.3936 19.2 11.4C19.2 11.1108 19.1256 10.842 19.0044 10.5996Z" fill="#F55539"/>
<path d="M6.6 15.6C5.6052 15.6 4.8 16.4064 4.8 17.4C4.8 18.2424 5.3808 18.9444 6.1632 19.14L10.9632 20.34C11.1036 20.376 11.2488 20.4 11.4 20.4C12.3948 20.4 13.2 19.5936 13.2 18.6C13.2 17.7576 12.6192 17.0556 11.8368 16.86L7.0368 15.66C6.8964 15.624 6.7512 15.6 6.6 15.6Z" fill="#F55539"/>
<path d="M52.9956 10.5996L55.3956 5.79965C55.6908 5.20925 56.2956 4.80005 57 4.80005C57.9948 4.80005 58.8 5.60645 58.8 6.60005C58.8 6.88925 58.7256 7.15805 58.6044 7.40045L56.2044 12.2004C55.9092 12.7908 55.3044 13.2 54.6 13.2C53.6052 13.2 52.8 12.3936 52.8 11.4C52.8 11.1108 52.8744 10.842 52.9956 10.5996Z" fill="#F55539"/>
<path d="M65.4 15.6C66.3948 15.6 67.2 16.4064 67.2 17.4C67.2 18.2424 66.6192 18.9444 65.8368 19.14L61.0368 20.34C60.8964 20.376 60.7512 20.4 60.6 20.4C59.6052 20.4 58.8 19.5936 58.8 18.6C58.8 17.7576 59.3808 17.0556 60.1632 16.86L64.9632 15.66C65.1036 15.624 65.2488 15.6 65.4 15.6Z" fill="#F55539"/>
<path d="M36 4.80005L3.60001 37.2001H12V66C12 67.3249 13.0752 68.4001 14.4 68.4001H57.6C58.9248 68.4001 60 67.3249 60 66V37.2001H68.4L36 4.80005ZM18 45V35.4C18 35.0688 18.2688 34.8001 18.6 34.8001C18.7656 34.8001 18.9156 34.8673 19.0248 34.9753L20.6292 36.5796C23.6112 31.9032 30.042 27.6 36 27.6C45.6 27.6 50.6472 33.1705 52.3596 40.6309C49.3476 37.7677 44.0844 36 39.6 36C34.5648 36 30.0828 39.4465 27.0048 42.9565L28.6248 44.5765C28.7328 44.6844 28.8 44.8344 28.8 45C28.8 45.3312 28.5312 45.6001 28.2 45.6001H18.6C18.2688 45.6001 18 45.3312 18 45ZM54 54.6001C54 54.9313 53.7312 55.2001 53.4 55.2001C53.2344 55.2001 53.0844 55.1329 52.9752 55.0249L51.3708 53.4204C48.3888 58.0968 41.958 62.4001 36 62.4001C26.4 62.4001 21.3528 56.8297 19.6404 49.3692C22.6524 52.2324 27.9156 54 32.4 54C37.4352 54 41.9172 50.5536 44.9952 47.0436L43.3752 45.4237C43.2672 45.3157 43.2 45.1656 43.2 45C43.2 44.6688 43.4688 44.4001 43.8 44.4001H53.4C53.7312 44.4001 54 44.6688 54 45V54.6001Z" fill="#F55539"/>
</svg>
