<svg width="325" height="78" viewBox="0 0 325 78" fill="none" xmlns="http://www.w3.org/2000/svg">
<path d="M103.951 52.7333V17.2971H89.3474C89.4465 17.4113 89.5391 17.5337 89.6318 17.648C90.1355 18.2762 90.6198 18.9175 91.0748 19.5816C95.0047 25.2821 97.1101 32.0505 97.1101 38.9837C97.1101 45.917 95.0047 52.6853 91.0748 58.3858C90.6198 59.05 90.1355 59.6913 89.6318 60.3195C89.5391 60.4337 89.4075 60.5986 89.3068 60.7128H117.419V52.7333H103.951Z" fill="#F55539"/>
<path d="M35.2625 58.3793C31.3331 52.6798 29.228 45.9126 29.228 38.9805C29.228 32.0484 31.3331 25.2811 35.2625 19.5816C35.7078 18.9518 36.1714 18.3311 36.6535 17.7198C36.7543 17.5729 36.9265 17.382 37.0435 17.2302H20.956L1.95001 44.5286V52.8508H22.8979V60.703H37.0354C36.9184 60.5659 36.7461 60.3766 36.6454 60.2379C36.1655 59.6374 35.7045 59.0179 35.2625 58.3793ZM23.075 44.2006H12.961L23.062 28.8617L23.075 44.2006Z" fill="#F55539"/>
<path d="M53.1083 24.8652C53.9624 24.2456 54.8719 23.707 55.8253 23.2563C56.7014 22.8444 57.6102 22.5065 58.5423 22.2462V31.7971L68.016 22.2739L72.891 17.3785L69.8214 14.2944L58.5423 2.95508V13.8522C57.6236 14.0189 56.7162 14.2428 55.8253 14.5229C54.8994 14.7981 53.9919 15.1322 53.1083 15.5232C49.0645 17.2715 45.5396 20.0402 42.8762 23.5604C40.2127 27.0807 38.5011 31.2328 37.9076 35.6135C37.3141 39.9942 37.8589 44.4546 39.4891 48.5614C41.1193 52.6682 43.7794 56.2819 47.2111 59.0514L49.4764 56.7783L53.027 53.2129C50.7908 51.5914 48.9713 49.4586 47.719 46.9908C46.4667 44.5229 45.8177 41.7911 45.8256 39.0214C45.8335 36.2516 46.4982 33.5236 47.7646 31.0631C49.0311 28.6025 50.8628 26.4802 53.1083 24.8718V24.8652Z" fill="#17110F"/>
<path d="M79.0303 18.929L73.2144 24.7692C75.5075 26.3858 77.3775 28.5349 78.6654 31.0336C79.9532 33.5323 80.6207 36.3064 80.6109 39.1199C80.6012 41.9334 79.9146 44.7028 78.6095 47.1924C77.3044 49.682 75.4195 51.8181 73.1153 53.4187C72.2584 54.0158 71.3489 54.5331 70.3983 54.964C69.523 55.3698 68.6138 55.6975 67.6813 55.9431V46.2126L58.162 55.7717L53.3244 60.628L56.4948 63.8116L67.6813 75.0449V64.3207C68.5991 64.1646 69.5064 63.9521 70.3983 63.6843C71.3222 63.4174 72.2295 63.0953 73.1153 62.7199C77.2146 60.9929 80.7938 58.221 83.4989 54.6786C86.204 51.1362 87.9412 46.9459 88.5387 42.5224C89.1362 38.0988 88.5733 33.5953 86.9056 29.4573C85.2379 25.3192 82.5233 21.6901 79.0303 18.929V18.929Z" fill="#17110F"/>
<path d="M254.192 36.164C252.9 35.4289 251.832 34.3528 251.105 33.0522C250.36 31.6713 249.97 30.1259 249.97 28.5557C249.97 26.9855 250.36 25.4401 251.105 24.0593C251.832 22.7587 252.9 21.6826 254.192 20.9475C255.52 20.2163 257.01 19.833 258.524 19.833C260.038 19.833 261.528 20.2163 262.855 20.9475C264.144 21.6785 265.207 22.751 265.93 24.0479C266.692 25.4257 267.079 26.9807 267.053 28.5565C267.079 30.1324 266.692 31.6874 265.93 33.0652C265.207 34.3621 264.144 35.4346 262.855 36.1656C261.528 36.8968 260.038 37.2801 258.524 37.2801C257.01 37.2801 255.52 36.8968 254.192 36.1656V36.164ZM261.721 34.5093C262.679 33.9478 263.457 33.1236 263.965 32.1334C264.527 31.0265 264.806 29.7969 264.778 28.5549C264.778 27.182 264.507 25.9854 263.965 24.965C263.457 23.9817 262.683 23.1622 261.732 22.6005C260.746 22.0536 259.638 21.7668 258.511 21.7668C257.385 21.7668 256.277 22.0536 255.291 22.6005C254.34 23.1631 253.566 23.9831 253.058 24.9666C252.516 25.987 252.245 27.1837 252.245 28.5565C252.218 29.7985 252.497 31.0279 253.058 32.1351C253.566 33.1254 254.345 33.9496 255.304 34.511C256.285 35.0579 257.39 35.3449 258.512 35.3449C259.635 35.3449 260.739 35.0579 261.721 34.511V34.5093Z" fill="#F55539"/>
<path d="M272.152 20.0288V30.8411C272.152 32.3641 272.522 33.4912 273.262 34.2222C274.001 34.9532 275.031 35.3209 276.349 35.3253C277.649 35.3253 278.67 34.9576 279.411 34.2222C280.152 33.4868 280.522 32.3598 280.52 30.8411V20.0288H282.75V30.8101C282.75 32.2309 282.465 33.4275 281.895 34.4001C281.361 35.3385 280.558 36.094 279.591 36.5687C278.568 37.0365 277.457 37.2786 276.333 37.2786C275.209 37.2786 274.098 37.0365 273.075 36.5687C272.109 36.0958 271.31 35.3396 270.782 34.4001C270.22 33.4275 269.938 32.2309 269.938 30.8101V20.0288H272.152Z" fill="#F55539"/>
<path d="M295.406 37.1072L291.363 30.1231H288.68V37.1072H286.458V20.0288H291.948C293.233 20.0288 294.317 20.2496 295.198 20.6913C296.024 21.0768 296.717 21.7019 297.187 22.4863C297.672 23.3692 297.897 24.3731 297.834 25.3799C297.772 26.3867 297.424 27.3546 296.832 28.1699C296.157 29.0684 295.145 29.6668 293.795 29.9648L298.064 37.1203L295.406 37.1072ZM288.672 28.3347H291.939C293.144 28.3347 294.047 28.0366 294.648 27.4404C295.25 26.8443 295.551 26.048 295.552 25.0515C295.552 24.0376 295.255 23.2538 294.661 22.7001C294.068 22.1463 293.16 21.8684 291.939 21.8662H288.672V28.3347Z" fill="#F55539"/>
<path d="M253.022 56.3836H258.975V58.1965H250.801V41.1213H253.022V56.3836Z" fill="#F55539"/>
<path d="M263.562 41.1213V58.1965H261.342V41.1213H263.562Z" fill="#F55539"/>
<path d="M281.4 41.1213L274.982 58.1965H272.42L266.001 41.1213H268.369L273.713 55.8483L279.056 41.1213H281.4Z" fill="#F55539"/>
<path d="M286.06 41.1213V58.1965H283.839V41.1213H286.06Z" fill="#F55539"/>
<path d="M303.214 58.1964H300.992L292.055 44.597V58.1964H289.835V41.0935H292.055L300.992 54.6684V41.0935H303.214V58.1964Z" fill="#F55539"/>
<path d="M319.878 46.0674C319.439 45.1083 318.726 44.3022 317.829 43.7519C316.884 43.1935 315.802 42.9109 314.706 42.936C313.583 42.9182 312.475 43.1997 311.496 43.7519C310.539 44.3046 309.761 45.1212 309.252 46.105C308.714 47.205 308.435 48.414 308.435 49.6394C308.435 50.8648 308.714 52.0739 309.252 53.1739C309.764 54.1519 310.542 54.9635 311.496 55.5139C312.475 56.0661 313.583 56.3477 314.706 56.3298C316.364 56.3298 317.731 55.8316 318.805 54.8351C319.88 53.8386 320.506 52.4907 320.682 50.7915H313.9V48.9835H323.05V50.6985C322.93 52.0734 322.477 53.398 321.732 54.5577C320.996 55.7174 319.981 56.6717 318.779 57.3317C317.531 58.0167 316.128 58.3668 314.706 58.3483C313.193 58.3651 311.703 57.9806 310.386 57.2338C309.096 56.5008 308.029 55.429 307.299 54.1334C306.556 52.7554 306.166 51.2131 306.166 49.646C306.166 48.0788 306.556 46.5365 307.299 45.1585C308.026 43.8577 309.094 42.7816 310.386 42.0467C311.703 41.2999 313.193 40.9154 314.706 40.9322C316.51 40.9322 318.108 41.3815 319.499 42.28C320.894 43.1832 321.96 44.5153 322.538 46.0772L319.878 46.0674Z" fill="#F55539"/>
<path d="M140.606 58.1964V19.7561H157.147V25.4984H149.066V35.1799H156.107V41.1115H149.066V58.1964H140.606Z" fill="#17110F"/>
<path d="M172.088 58.7659C169.219 58.7659 166.95 58.26 165.282 57.2483C163.622 56.2484 162.353 54.7072 161.687 52.8816C160.963 50.9822 160.601 48.72 160.602 46.0949V31.8102C160.602 29.1525 160.964 26.8903 161.687 25.0235C162.357 23.2197 163.624 21.7017 165.276 20.7237C166.944 19.7272 169.212 19.229 172.081 19.229C174.978 19.229 177.27 19.7272 178.956 20.7237C180.619 21.6939 181.896 23.2112 182.572 25.0186C183.297 26.8854 183.659 29.1476 183.659 31.8053V46.0901C183.659 48.7151 183.297 50.9773 182.572 52.8767C181.903 54.7068 180.626 56.2491 178.956 57.2434C177.272 58.2584 174.982 58.7659 172.088 58.7659ZM172.088 52.738C172.968 52.738 173.614 52.5166 174.025 52.0739C174.452 51.5947 174.731 51.0011 174.829 50.3654C174.955 49.661 175.018 48.9467 175.017 48.231V29.7215C175.02 28.9976 174.957 28.275 174.829 27.5626C174.727 26.9353 174.448 26.3507 174.025 25.8786C173.615 25.4347 172.969 25.2134 172.088 25.2144C171.267 25.2144 170.653 25.4358 170.243 25.8786C169.82 26.3508 169.541 26.9355 169.44 27.5626C169.311 28.2748 169.248 28.9976 169.252 29.7215V48.231C169.249 48.9457 169.303 49.6594 169.414 50.3654C169.494 50.9969 169.757 51.591 170.17 52.0739C170.561 52.5177 171.2 52.7391 172.088 52.738Z" fill="#17110F"/>
<path d="M199.875 58.7659C196.95 58.7659 194.658 58.2834 193 57.3185C191.368 56.3822 190.133 54.8807 189.525 53.0954C188.863 51.246 188.533 48.9756 188.533 46.2843V19.7561H196.898V47.5669C196.898 48.3616 196.962 49.155 197.088 49.9395C197.18 50.6516 197.466 51.3245 197.914 51.8846C198.339 52.3905 198.993 52.6434 199.875 52.6434C200.789 52.6434 201.451 52.3905 201.861 51.8846C202.293 51.3176 202.561 50.6426 202.638 49.933C202.747 49.1468 202.801 48.354 202.8 47.5603V19.7561H211.213V46.2843C211.213 48.9735 210.874 51.2438 210.197 53.0954C209.578 54.8744 208.346 56.3724 206.723 57.3185C205.083 58.2834 202.8 58.7659 199.875 58.7659Z" fill="#17110F"/>
<path d="M216.6 58.1964V19.7561H227.139C229.722 19.7561 231.958 20.0411 233.849 20.6112C235.739 21.1812 237.212 22.2011 238.267 23.6708C239.324 25.1427 239.852 27.2232 239.852 29.9124C239.867 31.3293 239.74 32.7441 239.473 34.1355C239.254 35.2948 238.777 36.3896 238.079 37.3387C237.402 38.2417 236.433 38.9934 235.173 39.5939L240.419 58.1964H231.675L227.469 40.9695H225.063V58.1964H216.6ZM225.063 36.0806H227.425C228.617 36.0806 229.546 35.8674 230.214 35.441C230.88 35.0072 231.373 34.3523 231.608 33.5905C231.896 32.6451 232.031 31.6596 232.009 30.6712C232.009 29.0264 231.71 27.7448 231.112 26.8267C230.514 25.9085 229.41 25.4516 227.801 25.456H225.063V36.0806Z" fill="#17110F"/>
</svg>
