<svg width="444" height="108" viewBox="0 0 444 108" fill="none" xmlns="http://www.w3.org/2000/svg">
<path d="M142.013 73.0153V23.9498H122.062C122.198 24.108 122.324 24.2774 122.451 24.4356C123.139 25.3055 123.801 26.1934 124.422 27.113C129.791 35.006 132.667 44.3776 132.667 53.9774C132.667 63.5773 129.791 72.9489 124.422 80.8419C123.801 81.7615 123.139 82.6494 122.451 83.5193C122.324 83.6774 122.144 83.9056 122.007 84.0638H160.413V73.0153H142.013Z" fill="#F55539"/>
<path d="M48.174 80.8328C42.8059 72.9412 39.9299 63.5712 39.9299 53.9729C39.9299 44.3746 42.8059 35.0046 48.174 27.113C48.7823 26.2409 49.4157 25.3815 50.0743 24.535C50.212 24.3317 50.4473 24.0673 50.6071 23.8572H28.6291L2.664 61.6549V73.1779H31.282V84.0502H50.596C50.4362 83.8605 50.2009 83.5984 50.0632 83.4063C49.4076 82.5748 48.7779 81.717 48.174 80.8328ZM31.524 61.2008H17.7067L31.5062 39.9623L31.524 61.2008Z" fill="#F55539"/>
<path d="M72.554 34.4289C73.7209 33.571 74.9635 32.8252 76.2659 32.2012C77.4628 31.6308 78.7044 31.163 79.9777 30.8026V44.0269L92.9203 30.841L99.5803 24.0628L95.3867 19.7925L79.9777 4.0918V19.1802C78.7227 19.4109 77.483 19.721 76.2659 20.1088C75.001 20.4899 73.7612 20.9525 72.554 21.4938C67.0296 23.9145 62.2142 27.7481 58.5754 32.6223C54.9367 37.4965 52.5984 43.2456 51.7876 49.3112C50.9768 55.3768 51.7211 61.5527 53.9481 67.239C56.1752 72.9254 59.8094 77.929 64.4977 81.7637L67.5923 78.6163L72.443 73.6795C69.388 71.4345 66.9023 68.4813 65.1915 65.0643C63.4806 61.6473 62.594 57.8648 62.6048 54.0298C62.6157 50.1947 63.5237 46.4175 65.2538 43.0106C66.984 39.6037 69.4864 36.6651 72.554 34.438V34.4289Z" fill="#F6F5F3"/>
<path d="M107.967 26.2092L100.022 34.2957C103.155 36.5341 105.71 39.5098 107.469 42.9695C109.228 46.4292 110.14 50.2703 110.127 54.1659C110.114 58.0615 109.176 61.8961 107.393 65.3433C105.61 68.7904 103.035 71.748 99.8867 73.9642C98.716 74.791 97.4736 75.5072 96.1748 76.1039C94.9791 76.6658 93.737 77.1195 92.463 77.4595V63.9866L79.4582 77.2223L72.8493 83.9463L77.1805 88.3544L92.463 103.908V89.0594C93.7168 88.8432 94.9564 88.5489 96.1748 88.1782C97.4371 87.8086 98.6766 87.3627 99.8867 86.8429C105.487 84.4516 110.377 80.6136 114.072 75.7087C117.768 70.8038 120.141 65.0019 120.957 58.877C121.774 52.7521 121.005 46.5165 118.726 40.7869C116.448 35.0573 112.74 30.0324 107.967 26.2092Z" fill="#F6F5F3"/>
<path d="M347.266 50.0732C345.5 49.0553 344.041 47.5653 343.048 45.7645C342.031 43.8526 341.498 41.7128 341.498 39.5387C341.498 37.3646 342.031 35.2248 343.048 33.3129C344.041 31.512 345.5 30.022 347.266 29.0042C349.079 27.9918 351.115 27.4611 353.183 27.4611C355.252 27.4611 357.287 27.9918 359.101 29.0042C360.861 30.0164 362.314 31.5014 363.301 33.297C364.342 35.2048 364.871 37.3579 364.835 39.5398C364.871 41.7217 364.342 43.8748 363.301 45.7826C362.314 47.5782 360.861 49.0632 359.101 50.0754C357.287 51.0878 355.252 51.6185 353.183 51.6185C351.115 51.6185 349.079 51.0878 347.266 50.0754V50.0732ZM357.551 47.7821C358.86 47.0047 359.923 45.8635 360.617 44.4924C361.384 42.9597 361.765 41.2572 361.727 39.5375C361.727 37.6366 361.357 35.9797 360.617 34.5668C359.923 33.2054 358.865 32.0707 357.567 31.2929C356.219 30.5358 354.705 30.1386 353.166 30.1386C351.627 30.1386 350.114 30.5358 348.766 31.2929C347.468 32.072 346.411 33.2073 345.716 34.5691C344.976 35.982 344.606 37.6389 344.606 39.5398C344.568 41.2594 344.95 42.9617 345.716 44.4947C346.411 45.8659 347.475 47.0071 348.784 47.7844C350.125 48.5417 351.634 48.939 353.168 48.939C354.701 48.939 356.21 48.5417 357.551 47.7844V47.7821Z" fill="#F55539"/>
<path d="M371.801 27.7321V42.7029C371.801 44.8117 372.307 46.3722 373.317 47.3844C374.328 48.3967 375.734 48.9058 377.535 48.9118C379.311 48.9118 380.706 48.4027 381.718 47.3844C382.73 46.3662 383.236 44.8057 383.234 42.7029V27.7321H386.28V42.66C386.28 44.6272 385.891 46.2841 385.112 47.6307C384.382 48.93 383.286 49.9762 381.964 50.6335C380.567 51.2812 379.049 51.6164 377.513 51.6164C375.978 51.6164 374.46 51.2812 373.062 50.6335C371.743 49.9787 370.651 48.9315 369.93 47.6307C369.162 46.2841 368.777 44.6272 368.777 42.66V27.7321H371.801Z" fill="#F55539"/>
<path d="M403.569 51.3791L398.046 41.7088H394.381V51.3791H391.346V27.7321H398.845C400.602 27.7321 402.082 28.0378 403.285 28.6494C404.414 29.1831 405.361 30.0487 406.002 31.1347C406.666 32.3573 406.973 33.7473 406.888 35.1413C406.802 36.5353 406.327 37.8755 405.518 39.0043C404.596 40.2485 403.213 41.0769 401.369 41.4896L407.201 51.3972L403.569 51.3791ZM394.37 39.2325H398.834C400.48 39.2325 401.713 38.8198 402.535 37.9943C403.356 37.1689 403.768 36.0663 403.769 34.6865C403.769 33.2827 403.364 32.1974 402.553 31.4307C401.742 30.664 400.502 30.2792 398.834 30.2762H394.37V39.2325Z" fill="#F55539"/>
<path d="M345.667 78.0696H353.799V80.5798H342.633V56.9373H345.667V78.0696Z" fill="#F55539"/>
<path d="M360.066 56.9373V80.5798H357.034V56.9373H360.066Z" fill="#F55539"/>
<path d="M384.435 56.9373L375.668 80.5798H372.167L363.398 56.9373H366.633L373.935 77.3285L381.234 56.9373H384.435Z" fill="#F55539"/>
<path d="M390.802 56.9373V80.5798H387.767V56.9373H390.802Z" fill="#F55539"/>
<path d="M414.237 80.5797H411.202L398.992 61.7498V80.5797H395.959V56.8988H398.992L411.202 75.6949V56.8988H414.237V80.5797Z" fill="#F55539"/>
<path d="M437.003 63.7855C436.403 62.4576 435.428 61.3414 434.203 60.5794C432.912 59.8062 431.434 59.4149 429.936 59.4497C428.402 59.425 426.889 59.8148 425.552 60.5794C424.245 61.3447 423.181 62.4754 422.486 63.8375C421.751 65.3606 421.369 67.0347 421.369 68.7314C421.369 70.4281 421.751 72.1022 422.486 73.6253C423.185 74.9794 424.248 76.1032 425.552 76.8653C426.889 77.6299 428.402 78.0197 429.936 77.995C432.202 77.995 434.069 77.3051 435.537 75.9254C437.005 74.5456 437.86 72.6793 438.101 70.3265H428.835V67.8231H441.336V70.1977C441.172 72.1014 440.554 73.9356 439.536 75.5413C438.53 77.1471 437.143 78.4683 435.502 79.3823C433.796 80.3307 431.879 80.8155 429.936 80.7899C427.87 80.8131 425.835 80.2807 424.035 79.2467C422.273 78.2317 420.815 76.7477 419.817 74.9538C418.802 73.0459 418.27 70.9103 418.27 68.7404C418.27 66.5706 418.802 64.435 419.817 62.527C420.811 60.7259 422.269 59.2359 424.035 58.2183C425.835 57.1843 427.87 56.652 429.936 56.6752C432.402 56.6752 434.585 57.2973 436.485 58.5414C438.39 59.792 439.847 61.6364 440.637 63.7991L437.003 63.7855Z" fill="#F55539"/>
<path d="M192.09 80.5797V27.3547H214.687V35.3056H203.647V48.7107H213.266V56.9237H203.647V80.5797H192.09Z" fill="#F6F5F3"/>
<path d="M235.098 81.3684C231.179 81.3684 228.08 80.6679 225.801 79.2671C223.532 77.8827 221.799 75.7486 220.89 73.2209C219.9 70.5909 219.406 67.4586 219.407 63.824V44.0451C219.407 40.3653 219.901 37.233 220.89 34.6482C221.805 32.1505 223.536 30.0487 225.792 28.6946C228.071 27.3149 231.17 26.625 235.089 26.625C239.047 26.625 242.178 27.3149 244.482 28.6946C246.753 30.038 248.498 32.1388 249.421 34.6414C250.412 37.2262 250.907 40.3585 250.907 44.0383V63.8172C250.907 67.4519 250.412 70.5842 249.421 73.2141C248.508 75.748 246.763 77.8836 244.482 79.2603C242.181 80.6657 239.053 81.3684 235.098 81.3684ZM235.098 73.0221C236.301 73.0221 237.183 72.7155 237.744 72.1025C238.328 71.439 238.71 70.6171 238.843 69.7369C239.016 68.7616 239.102 67.7725 239.101 66.7816V41.153C239.105 40.1507 239.018 39.1502 238.843 38.1638C238.705 37.2953 238.323 36.4858 237.744 35.8321C237.185 35.2176 236.303 34.911 235.098 34.9125C233.978 34.9125 233.138 35.2191 232.578 35.8321C232 36.486 231.619 37.2955 231.482 38.1638C231.305 39.15 231.219 40.1507 231.224 41.153V66.7816C231.22 67.7711 231.294 68.7594 231.446 69.7369C231.555 70.6114 231.914 71.434 232.478 72.1025C233.013 72.7171 233.886 73.0236 235.098 73.0221Z" fill="#F6F5F3"/>
<path d="M273.06 81.3683C269.064 81.3683 265.933 80.7002 263.667 79.3642C261.439 78.0678 259.751 75.9888 258.921 73.5168C258.017 70.9561 257.564 67.8125 257.564 64.086V27.3547H268.993V65.8619C268.993 66.9623 269.08 68.0608 269.253 69.1471C269.379 70.1331 269.769 71.0648 270.38 71.8403C270.962 72.5407 271.855 72.8909 273.06 72.8909C274.309 72.8909 275.213 72.5407 275.773 71.8403C276.363 71.0553 276.73 70.1206 276.834 69.1381C276.983 68.0496 277.057 66.9519 277.056 65.8529V27.3547H288.549V64.086C288.549 67.8095 288.086 70.9531 287.161 73.5168C286.316 75.9801 284.632 78.0542 282.415 79.3642C280.174 80.7002 277.056 81.3683 273.06 81.3683Z" fill="#F6F5F3"/>
<path d="M295.908 80.5797V27.3547H310.307C313.836 27.3547 316.891 27.7494 319.474 28.5387C322.056 29.328 324.068 30.7401 325.51 32.7751C326.953 34.8131 327.674 37.6938 327.674 41.4173C327.695 43.3792 327.522 45.3381 327.157 47.2647C326.857 48.8699 326.206 50.3858 325.252 51.6999C324.327 52.9501 323.004 53.991 321.283 54.8224L328.449 80.5797H316.503L310.758 56.7271H307.47V80.5797H295.908ZM307.47 49.9579H310.698C312.326 49.9579 313.596 49.6627 314.507 49.0722C315.418 48.4716 316.092 47.5648 316.412 46.51C316.805 45.201 316.99 43.8364 316.961 42.468C316.961 40.1905 316.552 38.4161 315.735 37.1448C314.918 35.8735 313.41 35.2408 311.211 35.2469H307.47V49.9579Z" fill="#F6F5F3"/>
</svg>
