<svg width="23" height="23" viewBox="0 0 23 23" fill="none" xmlns="http://www.w3.org/2000/svg">
<rect x="0.5" y="0.5" width="22" height="22" stroke="#17110F"/>
<path fill-rule="evenodd" clip-rule="evenodd" d="M4 11.5C4 11.1526 4.26863 10.871 4.6 10.871L17.3997 10.871C17.731 10.871 17.9997 11.1526 17.9997 11.5C17.9997 11.8474 17.731 12.129 17.3997 12.129H4.6C4.26863 12.129 4 11.8474 4 11.5ZM6.62646 17.371C6.62646 17.0236 6.89508 16.7419 7.22646 16.7419L17.4 16.7419C17.7314 16.7419 18 17.0236 18 17.371C18 17.7184 17.7314 18 17.4 18L7.22646 18C6.89508 18 6.62646 17.7184 6.62646 17.371ZM11.1775 5.62903C11.1775 5.28163 11.4461 5 11.7775 5L17.4 5C17.7314 5 18 5.28163 18 5.62903C18 5.97644 17.7314 6.25806 17.4 6.25806L11.7775 6.25806C11.4461 6.25806 11.1775 5.97644 11.1775 5.62903Z" fill="#F55539"/>
</svg>
